<svg width="150" height="150" viewBox="0 0 150 150" fill="none" xmlns="http://www.w3.org/2000/svg">
<path d="M126.562 44.531H97.7402C100.426 43.3443 102.92 41.7645 105.141 39.8435C106.681 38.4741 107.921 36.8012 108.784 34.9298C109.647 33.0585 110.114 31.0289 110.156 28.9685C110.223 26.6852 109.822 24.4124 108.979 22.2895C108.135 20.1666 106.867 18.2383 105.252 16.6231C103.636 15.0079 101.708 13.7397 99.5853 12.8963C97.4624 12.0529 95.1896 11.6521 92.9062 11.7185C90.8458 11.7603 88.8163 12.2275 86.9449 13.0906C85.0735 13.9537 83.4007 15.1941 82.0312 16.7341C78.5684 20.6423 76.3887 25.7341 75 30.615C73.623 25.7341 71.4434 20.6541 67.9688 16.7341C66.5993 15.1941 64.9265 13.9537 63.0551 13.0906C61.1837 12.2275 59.1542 11.7603 57.0938 11.7185C54.8104 11.6521 52.5376 12.0529 50.4147 12.8963C48.2918 13.7397 46.3636 15.0079 44.7483 16.6231C43.1331 18.2383 41.8649 20.1666 41.0215 22.2895C40.1781 24.4124 39.7773 26.6852 39.8438 28.9685C39.8856 31.0289 40.3527 33.0585 41.2158 34.9298C42.0789 36.8012 43.3193 38.4741 44.8594 39.8435C47.0799 41.7645 49.5741 43.3443 52.2598 44.531H23.4375C21.5727 44.531 19.7843 45.2718 18.4657 46.5904C17.147 47.909 16.4062 49.6975 16.4062 51.5623V70.3123C16.4062 72.1771 17.147 73.9655 18.4657 75.2841C19.7843 76.6027 21.5727 77.3435 23.4375 77.3435H25.7812V117.187C25.7812 119.052 26.522 120.84 27.8407 122.159C29.1593 123.478 30.9477 124.219 32.8125 124.219H117.188C119.052 124.219 120.841 123.478 122.159 122.159C123.478 120.84 124.219 119.052 124.219 117.187V77.3435H126.562C128.427 77.3435 130.216 76.6027 131.534 75.2841C132.853 73.9655 133.594 72.1771 133.594 70.3123V51.5623C133.594 49.6975 132.853 47.909 131.534 46.5904C130.216 45.2718 128.427 44.531 126.562 44.531ZM85.5469 19.8396C86.4934 18.782 87.6481 17.9311 88.9386 17.3403C90.2292 16.7495 91.6278 16.4314 93.0469 16.406H93.4043C95.0185 16.4077 96.6159 16.7329 98.1023 17.3622C99.5887 17.9916 100.934 18.9124 102.059 20.0704C103.183 21.2283 104.064 22.5998 104.65 24.104C105.236 25.6081 105.514 27.2144 105.469 28.8279C105.443 30.247 105.125 31.6456 104.534 32.9361C103.944 34.2267 103.093 35.3813 102.035 36.3279C94.9512 42.5974 82.6582 44.0681 77.4258 44.408C77.7891 39.2166 79.2539 26.9529 85.5469 19.8396ZM44.5312 28.8279C44.4858 27.2144 44.7642 25.6081 45.3499 24.104C45.9357 22.5998 46.8168 21.2283 47.9414 20.0704C49.066 18.9124 50.4113 17.9916 51.8977 17.3622C53.3841 16.7329 54.9815 16.4077 56.5957 16.406H56.9531C58.3722 16.4314 59.7708 16.7495 61.0614 17.3403C62.3519 17.9311 63.5066 18.782 64.4531 19.8396C70.7285 26.9236 72.1934 39.2166 72.5332 44.449C67.3242 44.1091 55.0313 42.6384 47.9238 36.3689C46.8686 35.4141 46.0225 34.2511 45.4386 32.9533C44.8547 31.6555 44.5458 30.2509 44.5312 28.8279ZM21.0938 70.3123V51.5623C21.0938 50.9407 21.3407 50.3445 21.7802 49.905C22.2198 49.4654 22.8159 49.2185 23.4375 49.2185H72.6562V72.656H23.4375C22.8159 72.656 22.2198 72.4091 21.7802 71.9695C21.3407 71.53 21.0938 70.9339 21.0938 70.3123ZM30.4688 117.187V77.3435H72.6562V119.531H32.8125C32.1909 119.531 31.5948 119.284 31.1552 118.845C30.7157 118.405 30.4688 117.809 30.4688 117.187ZM119.531 117.187C119.531 117.809 119.284 118.405 118.845 118.845C118.405 119.284 117.809 119.531 117.188 119.531H77.3438V77.3435H119.531V117.187ZM128.906 70.3123C128.906 70.9339 128.659 71.53 128.22 71.9695C127.78 72.4091 127.184 72.656 126.562 72.656H77.3438V49.2185H126.562C127.184 49.2185 127.78 49.4654 128.22 49.905C128.659 50.3445 128.906 50.9407 128.906 51.5623V70.3123Z" fill="#333333"/>
</svg>
