<svg width="100" height="100" viewBox="0 0 100 100" fill="none" xmlns="http://www.w3.org/2000/svg">
<path d="M84.375 29.6873H65.1602C66.9506 28.8962 68.6134 27.843 70.0938 26.5623C71.1204 25.6494 71.9474 24.5342 72.5228 23.2866C73.0982 22.039 73.4096 20.6859 73.4375 19.3123C73.4818 17.7901 73.2146 16.2749 72.6523 14.8596C72.0901 13.4444 71.2446 12.1589 70.1678 11.0821C69.0909 10.0052 67.8055 9.15977 66.3902 8.59751C64.9749 8.03525 63.4597 7.76807 61.9375 7.81234C60.5639 7.84023 59.2109 8.15164 57.9633 8.72704C56.7157 9.30243 55.6005 10.1294 54.6875 11.1561C52.3789 13.7616 50.9258 17.1561 50 20.41C49.082 17.1561 47.6289 13.7694 45.3125 11.1561C44.3995 10.1294 43.2843 9.30243 42.0367 8.72704C40.7891 8.15164 39.4361 7.84023 38.0625 7.81234C36.5403 7.76807 35.0251 8.03525 33.6098 8.59751C32.1945 9.15977 30.9091 10.0052 29.8322 11.0821C28.7554 12.1589 27.9099 13.4444 27.3477 14.8596C26.7854 16.2749 26.5182 17.7901 26.5625 19.3123C26.5904 20.6859 26.9018 22.039 27.4772 23.2866C28.0526 24.5342 28.8796 25.6494 29.9062 26.5623C31.3866 27.843 33.0494 28.8962 34.8398 29.6873H15.625C14.3818 29.6873 13.1895 30.1812 12.3104 31.0603C11.4314 31.9394 10.9375 33.1316 10.9375 34.3748V46.8748C10.9375 48.118 11.4314 49.3103 12.3104 50.1894C13.1895 51.0685 14.3818 51.5623 15.625 51.5623H17.1875V78.1248C17.1875 79.3681 17.6814 80.5603 18.5604 81.4394C19.4395 82.3185 20.6318 82.8123 21.875 82.8123H78.125C79.3682 82.8123 80.5605 82.3185 81.4396 81.4394C82.3186 80.5603 82.8125 79.3681 82.8125 78.1248V51.5623H84.375C85.6182 51.5623 86.8105 51.0685 87.6896 50.1894C88.5686 49.3103 89.0625 48.118 89.0625 46.8748V34.3748C89.0625 33.1316 88.5686 31.9394 87.6896 31.0603C86.8105 30.1812 85.6182 29.6873 84.375 29.6873ZM57.0312 13.2264C57.6623 12.5213 58.4321 11.9541 59.2924 11.5602C60.1528 11.1663 61.0852 10.9543 62.0313 10.9373H62.2695C63.3456 10.9385 64.4106 11.1552 65.4015 11.5748C66.3925 11.9944 67.2893 12.6083 68.039 13.3802C68.7888 14.1522 69.3762 15.0665 69.7667 16.0693C70.1572 17.0721 70.3428 18.1429 70.3125 19.2186C70.2956 20.1647 70.0835 21.0971 69.6897 21.9574C69.2958 22.8178 68.7285 23.5876 68.0234 24.2186C63.3008 28.3983 55.1055 29.3788 51.6172 29.6053C51.8594 26.1444 52.8359 17.9686 57.0312 13.2264ZM29.6875 19.2186C29.6572 18.1429 29.8428 17.0721 30.2333 16.0693C30.6238 15.0665 31.2112 14.1522 31.961 13.3802C32.7107 12.6083 33.6075 11.9944 34.5985 11.5748C35.5894 11.1552 36.6544 10.9385 37.7305 10.9373H37.9687C38.9148 10.9543 39.8472 11.1663 40.7076 11.5602C41.5679 11.9541 42.3377 12.5213 42.9688 13.2264C47.1523 17.9491 48.1289 26.1444 48.3555 29.6327C44.8828 29.4061 36.6875 28.4256 31.9492 24.2459C31.2458 23.6094 30.6816 22.8341 30.2924 21.9689C29.9032 21.1037 29.6972 20.1673 29.6875 19.2186ZM14.0625 46.8748V34.3748C14.0625 33.9604 14.2271 33.563 14.5201 33.27C14.8132 32.977 15.2106 32.8123 15.625 32.8123H48.4375V48.4373H15.625C15.2106 48.4373 14.8132 48.2727 14.5201 47.9797C14.2271 47.6867 14.0625 47.2892 14.0625 46.8748ZM20.3125 78.1248V51.5623H48.4375V79.6873H21.875C21.4606 79.6873 21.0632 79.5227 20.7701 79.2297C20.4771 78.9367 20.3125 78.5393 20.3125 78.1248ZM79.6875 78.1248C79.6875 78.5393 79.5229 78.9367 79.2299 79.2297C78.9368 79.5227 78.5394 79.6873 78.125 79.6873H51.5625V51.5623H79.6875V78.1248ZM85.9375 46.8748C85.9375 47.2892 85.7729 47.6867 85.4799 47.9797C85.1868 48.2727 84.7894 48.4373 84.375 48.4373H51.5625V32.8123H84.375C84.7894 32.8123 85.1868 32.977 85.4799 33.27C85.7729 33.563 85.9375 33.9604 85.9375 34.3748V46.8748Z" fill="#F8F8F8"/>
</svg>
