<svg width="180" height="180" viewBox="0 0 180 180" fill="none" xmlns="http://www.w3.org/2000/svg">
<path d="M180 54.1408C180 47.5226 174.963 42.1568 168.75 42.1568H149.546C154.516 36.9348 157.697 30.0891 157.697 21.6581C157.697 11.277 152.1 0 136.389 0C115.718 0 98.4488 23.4467 90.3347 36.5902C82.215 23.4497 64.4175 0.00299579 43.7484 0.00299579C28.0378 0.00299579 22.4409 11.28 22.4409 21.6611C22.4409 30.0889 25.7091 36.9377 30.78 42.1598H11.25C5.03719 42.1598 0 47.5256 0 54.1438V90.015H11.3484V168.016C11.3484 174.634 16.3854 180 22.5984 180H157.542C163.755 180 168.792 174.634 168.792 168.016V90.012H180V54.1408H180ZM136.389 11.987C143.345 11.987 146.447 15.1001 146.447 21.6613C146.447 34.9726 132.5 42.1538 119.382 42.1538H100.339C108.332 29.5077 122.4 11.987 136.389 11.987ZM43.7483 11.9872C57.7405 11.9872 72.34 29.5078 80.3331 42.151H61.284C48.1665 42.151 33.6906 34.7838 33.6906 21.4726C33.6906 14.9143 36.7928 11.9872 43.7483 11.9872ZM168.75 78.028H95.6248V54.1408H168.75V78.028ZM11.2498 54.1408H84.3748V78.028H11.2498V54.1408ZM22.5983 90.012H84.3748V168.013H22.5983V90.012ZM157.545 168.013H95.6248V90.012H157.545V168.013Z" fill="white"/>
</svg>
